PathFileType	4	(X/Y/Z)	Walk8.trc
DataRate	CameraRate	NumFrames	NumMarkers	Units	OrigDataRate	OrigDataStartFrame	OrigNumFrames
200.000000	200.000000	5	54	mm	200.000000	218	521
Frame#	Times		RBHD		C7		RASI		RACR1		RUA1		RElbow		RFA1		RWRU		RCAR		LACR1		LElbowM		LFA1		LWRR		RTH1		RTH3		RTH2		RLFC		RTB1		RTB3		RTB2		RTB4		RMT1		RMT5		LTH2		RTH4		LWRU		LTH3		LTH4		LElbow		LPSI		RPSI		LTB1		LLFC		T10		RWRR		LTB4		LTB3		LBHD		LTH1		LMT1		RBack		LCAL		CLAV		LTB2		LLMAL		LToe		RLMAL		LMT5		RMMAL		RElbowM		RToe		LUA1		LCAR		RCAL
			X1	Y1	Z1	X2	Y2	Z2	X3	Y3	Z3	X4	Y4	Z4	X5	Y5	Z5	X6	Y6	Z6	X7	Y7	Z7	X8	Y8	Z8	X9	Y9	Z9	X10	Y10	Z10	X11	Y11	Z11	X12	Y12	Z12	X13	Y13	Z13	X14	Y14	Z14	X15	Y15	Z15	X16	Y16	Z16	X17	Y17	Z17	X18	Y18	Z18	X19	Y19	Z19	X20	Y20	Z20	X21	Y21	Z21	X22	Y22	Z22	X23	Y23	Z23	X24	Y24	Z24	X25	Y25	Z25	X26	Y26	Z26	X27	Y27	Z27	X28	Y28	Z28	X29	Y29	Z29	X30	Y30	Z30	X31	Y31	Z31	X32	Y32	Z32	X33	Y33	Z33	X34	Y34	Z34	X35	Y35	Z35	X36	Y36	Z36	X37	Y37	Z37	X38	Y38	Z38	X39	Y39	Z39	X40	Y40	Z40	X41	Y41	Z41	X42	Y42	Z42	X43	Y43	Z43	X44	Y44	Z44	X45	Y45	Z45	X46	Y46	Z46	X47	Y47	Z47	X48	Y48	Z48	X49	Y49	Z49	X50	Y50	Z50	X51	Y51	Z51	X52	Y52	Z52	X53	Y53	Z53	X54	Y54	Z54

218	1.09	-543.32	1552	356.47	-584.31	1416.3	281.89	-488.13	916.65	414.97	-525.37	1366.4	433.72	-610.74	1187.6	510.94	-684.83	1074.9	529.92	-681.79	928.89	558.17	-723.76	802.92	552.99	-695.3	740.62	563.57	-544.97	1405.7	109.28	-639.06	1080.1	59.197	-488.05	986.13	-43.062	-402.18	912.29	0.57721	-495.14	717.77	467.09	-413.37	549.84	433.17	-396.65	667.2	421.39	-373.05	459.8	413.59	-310.91	388.24	332.73	-261.48	204.3	328.98	-298.68	290.68	403.56	-284.35	299.05	332.56	-128.87	84.94	287.33	-153.12	67.785	366.98	-544.5	619.13	127.36	-453.65	633.1	455.05	-462.82	869.58	-33.924	-636.02	550.3	105.93	-610.36	635.64	89.195	-614.94	1088.2	-19.187	-676.07	936.54	221.92	-673.96	934.59	326.79	-688.77	338.06	187.2	-686.89	439.63	125.63	-685.33	1108	270.62	-652.57	785.41	525.56	-744.01	263.66	198.34	-794.65	186.7	207.34	-551.75	1552.9	218.46	-582.25	728.51	80.915	-769.68	34.85	267.48	-662.61	1327.8	370.63	-971.64	83.361	236.69	-453.53	1329.9	270.79	-770.35	273.81	131.89	-912.07	106.56	187.89	-721.75	24.001	256.16	-285.72	85.36	365.52	-798.87	27.601	177.29	-263.55	111.07	280.97	-702.38	1055.1	436.38	-89.515	107.17	315.36	-583.93	1217	5.7599	-380.28	864.51	-47.116	-315.92	26.87	320.54
219	1.095	-536.74	1551.1	357.37	-577.44	1415.5	282.58	-480.35	916.17	414.98	-518.66	1365.4	434.42	-603.92	1186.4	511.28	-677.86	1073.6	530.07	-674.84	927.59	558.24	-716.85	801.62	552.93	-688.43	739.31	563.52	-537.98	1405.1	109.92	-631.89	1079.5	59.413	-480.79	985.62	-42.8	-394.96	911.77	0.83797	-486.65	717.59	467.06	-404.83	549.74	432.78	-387.96	667.16	421.56	-364.51	459.51	413.4	-303.54	387.23	332.02	-256.4	202.83	327.9	-291.83	289.59	402.71	-278.07	297.78	331.66	-125.72	81.45	285.92	-149.93	64.73	365.77	-537.2	618.26	127.17	-445.12	632.95	454.86	-455.57	869.08	-33.761	-628.86	549.47	105.95	-603.24	634.85	89.368	-607.66	1087.7	-18.923	-668.53	935.69	222.16	-666.32	933.9	327.07	-683.09	337.06	186.98	-679.86	438.94	125.5	-677.94	1107.1	270.79	-645.64	784.12	525.57	-739.51	263.58	198	-791.38	187.46	206.89	-545.12	1552.2	219.35	-575.13	727.75	81.215	-769.87	34.771	267.43	-655.73	1326.6	371.04	-969.84	87.421	236.13	-446.49	1329.4	271.48	-765.69	274.28	131.59	-910.04	109.24	187.28	-722.22	23.863	256.21	-281.99	84.344	364.77	-798.9	27.561	177.4	-259.98	109.66	280.04	-695.32	1053.8	436.52	-85.889	102.99	313.63	-576.77	1216.5	6.2158	-373	864.03	-46.878	-313.57	26.799	320
220	1.1	-530.14	1550.4	358.29	-570.54	1414.7	283.3	-472.54	915.78	414.97	-511.9	1364.5	435.13	-597.01	1185.3	511.64	-670.78	1072.3	530.23	-667.74	926.33	558.34	-709.76	800.34	552.89	-681.35	738.04	563.49	-531	1404.6	110.58	-624.75	1078.9	59.684	-473.62	985.11	-42.51	-387.87	911.21	1.1074	-478.19	717.48	467.01	-396.35	549.68	432.4	-379.3	667.17	421.76	-356.01	459.29	413.24	-296.28	386.26	331.32	-251.56	201.36	326.86	-285.1	288.53	401.89	-271.97	296.52	330.78	-122.9	77.849	284.57	-147.1	61.62	364.66	-529.7	617.44	126.98	-436.63	632.86	454.67	-448.47	868.57	-33.584	-621.43	548.62	105.97	-595.92	634.05	89.554	-600.42	1087.2	-18.601	-660.98	934.91	222.38	-658.67	933.3	327.33	-677.1	336.04	186.7	-672.5	438.21	125.34	-670.53	1106.3	270.96	-638.53	782.87	525.6	-734.72	263.52	197.61	-787.85	188.29	206.39	-538.46	1551.7	220.26	-567.89	727.01	81.537	-770.05	34.719	267.38	-648.81	1325.6	371.48	-967.75	91.753	235.53	-439.41	1328.9	272.17	-760.74	274.79	131.26	-907.75	112.11	186.63	-722.72	23.718	256.24	-278.59	83.376	364.11	-798.89	27.564	177.54	-256.75	108.26	279.19	-688.15	1052.6	436.67	-82.586	98.642	311.95	-569.64	1216.1	6.7081	-365.89	863.51	-46.637	-311.61	26.816	319.56
221	1.105	-523.53	1549.7	359.22	-563.62	1414.1	284.05	-464.73	915.5	414.95	-505.09	1363.6	435.85	-590.01	1184.2	512	-663.58	1071.1	530.42	-660.5	925.1	558.45	-702.49	799.1	552.85	-674.08	736.81	563.48	-524.03	1404.2	111.26	-617.62	1078.4	60.015	-466.53	984.61	-42.191	-380.91	910.6	1.386	-469.78	717.43	466.95	-387.94	549.68	432.05	-370.68	667.22	421.97	-347.58	459.13	413.09	-289.12	385.31	330.64	-246.95	199.93	325.87	-278.52	287.53	401.11	-266.04	295.29	329.94	-120.4	74.196	283.3	-144.59	58.504	363.66	-521.99	616.66	126.79	-428.21	632.83	454.48	-441.53	868.06	-33.392	-613.73	547.74	105.98	-588.41	633.25	89.752	-593.21	1086.9	-18.22	-653.43	934.2	222.57	-651.02	932.8	327.57	-670.78	334.99	186.38	-664.78	437.45	125.15	-663.12	1105.5	271.14	-631.24	781.67	525.63	-729.6	263.48	197.17	-784.01	189.2	205.84	-531.79	1551.2	221.19	-560.53	726.29	81.884	-770.21	34.705	267.33	-641.86	1324.6	371.97	-965.32	96.362	234.9	-432.31	1328.5	272.86	-755.48	275.37	130.89	-905.17	115.15	185.94	-723.26	23.57	256.23	-275.47	82.471	363.52	-798.84	27.624	177.7	-253.8	106.9	278.4	-680.86	1051.4	436.85	-79.572	94.198	310.33	-562.53	1215.8	7.2363	-358.94	862.93	-46.394	-309.98	26.917	319.2
222	1.11	-516.89	1549.2	360.17	-556.67	1413.5	284.84	-456.92	915.32	414.92	-498.24	1362.8	436.58	-582.92	1183.1	512.37	-656.28	1069.9	530.62	-653.1	923.92	558.57	-695.03	797.88	552.83	-666.61	735.63	563.5	-517.06	1403.9	111.95	-610.51	1078	60.409	-459.55	984.14	-41.842	-374.08	909.96	1.674	-461.43	717.45	466.89	-379.62	549.72	431.72	-362.14	667.32	422.19	-339.23	459.05	412.97	-282.08	384.42	329.98	-242.56	198.54	324.93	-272.07	286.58	400.37	-260.28	294.1	329.13	-118.17	70.547	282.12	-142.36	55.431	362.79	-514.06	615.93	126.6	-419.86	632.85	454.29	-434.74	867.55	-33.181	-605.74	546.84	105.99	-580.7	632.45	89.964	-586.03	1086.6	-17.779	-645.89	933.57	222.73	-643.39	932.38	327.79	-664.11	333.93	186	-656.69	436.66	124.93	-655.71	1104.9	271.32	-623.75	780.52	525.68	-724.15	263.46	196.68	-779.86	190.18	205.24	-525.09	1550.8	222.13	-553.05	725.58	82.255	-770.32	34.742	267.27	-634.86	1323.7	372.49	-962.52	101.25	234.23	-425.19	1328.2	273.56	-749.88	276	130.48	-902.28	118.38	185.22	-723.81	23.424	256.2	-272.61	81.641	363.01	-798.71	27.756	177.88	-251.12	105.6	277.69	-673.46	1050.2	437.04	-76.819	89.717	308.78	-555.44	1215.5	7.7993	-352.16	862.31	-46.148	-308.64	27.101	318.94
